<svg xmlns="http://www.w3.org/2000/svg" width="720" height="1440" viewBox="0 0 720 1440">
  <defs>
    <linearGradient id="g" x1="0" x2="1" y1="0" y2="1">
      <stop offset="0" stop-color="#2563eb"/>
      <stop offset="1" stop-color="#22d3ee"/>
    </linearGradient>
    <filter id="shadow" x="-20%" y="-20%" width="140%" height="140%">
      <feDropShadow dx="0" dy="20" stdDeviation="20" flood-color="#000" flood-opacity="0.2"/>
    </filter>
  </defs>

  <!-- Device frame -->
  <rect x="40" y="40" width="640" height="1360" rx="64" ry="64" fill="#0f172a" filter="url(#shadow)"/>
  <rect x="50" y="120" width="620" height="1200" rx="36" ry="36" fill="#ffffff"/>

  <!-- Notch / speaker -->
  <rect x="280" y="70" width="160" height="16" rx="8" fill="#1f2937"/>

  <!-- App header -->
  <rect x="80" y="160" width="560" height="60" rx="16" fill="#eff6ff"/>
  <text x="110" y="201" font-family="Inter, system-ui, -apple-system" font-size="28" fill="#1f2937">Simulisten</text>

  <!-- Cards -->
  <rect x="80" y="250" width="560" height="140" rx="20" fill="#f8fafc" stroke="#e2e8f0"/>
  <rect x="80" y="410" width="560" height="140" rx="20" fill="#f8fafc" stroke="#e2e8f0"/>
  <rect x="80" y="570" width="560" height="140" rx="20" fill="#f8fafc" stroke="#e2e8f0"/>

  <!-- Wave / activity -->
  <path d="M100 725 C140 705, 160 745, 180 725 S 220 705, 240 725 280 745, 300 725 340 705, 360 725 400 745, 420 725 460 705, 480 725 520 745, 540 725" stroke="url(#g)" stroke-width="4" fill="none"/>

  <!-- CTA -->
  <rect x="80" y="1020" width="560" height="72" rx="16" fill="url(#g)"/>
  <text x="360" y="1067" text-anchor="middle" font-family="Inter, system-ui, -apple-system" font-size="28" fill="white">Start a practice session</text>

  <!-- Bottom nav -->
  <rect x="240" y="1208" width="240" height="12" rx="6" fill="#e2e8f0"/>
</svg>